<mxfile host="app.diagrams.net" modified="2024-04-25T19:01:04.966Z" agent="Mozilla/5.0 (Windows NT 10.0; Win64; x64) AppleWebKit/537.36 (KHTML, like Gecko) Chrome/124.0.0.0 Safari/537.36" etag="x-K4XddCQlcQghDyHn0F" version="24.3.0" type="github">
  <diagram name="Page-1" id="c4acf3e9-155e-7222-9cf6-157b1a14988f">
    <mxGraphModel dx="3585" dy="745" grid="0" gridSize="10" guides="1" tooltips="1" connect="1" arrows="1" fold="1" page="1" pageScale="1" pageWidth="850" pageHeight="1100" background="none" math="0" shadow="0">
      <root>
        <mxCell id="0" />
        <mxCell id="1" parent="0" />
        <mxCell id="9T5XvWFMQbOCU71WLej6-58" value="&lt;p style=&quot;margin:0px;margin-top:4px;text-align:center;&quot;&gt;&lt;i&gt;&amp;lt;&amp;lt;Interface&amp;gt;&amp;gt;&lt;/i&gt;&lt;br&gt;&lt;b&gt;Subscriber&lt;/b&gt;&lt;/p&gt;&lt;hr size=&quot;1&quot;&gt;&lt;p style=&quot;margin:0px;margin-left:4px;&quot;&gt;&lt;br&gt;&lt;/p&gt;&lt;hr size=&quot;1&quot;&gt;&lt;p style=&quot;margin: 0px 0px 0px 4px; line-height: 140%;&quot;&gt;+ update(string, string)&lt;/p&gt;" style="verticalAlign=top;align=left;overflow=fill;fontSize=12;fontFamily=Helvetica;html=1;rounded=0;shadow=0;comic=0;labelBackgroundColor=none;strokeWidth=1" vertex="1" parent="1">
          <mxGeometry x="996" y="1664" width="190" height="100" as="geometry" />
        </mxCell>
        <mxCell id="9T5XvWFMQbOCU71WLej6-60" value="EventNotifier" style="swimlane;html=1;fontStyle=0;childLayout=stackLayout;horizontal=1;startSize=26;fillColor=none;horizontalStack=0;resizeParent=1;resizeLast=0;collapsible=1;marginBottom=0;swimlaneFillColor=#ffffff;rounded=0;shadow=0;comic=0;labelBackgroundColor=none;strokeWidth=1;fontFamily=Verdana;fontSize=10;align=center;" vertex="1" parent="1">
          <mxGeometry x="1316" y="1676" width="269" height="170" as="geometry" />
        </mxCell>
        <mxCell id="9T5XvWFMQbOCU71WLej6-61" value="- subscribers: Subscriber[]&lt;div&gt;- strategy: NotificationStrategy&lt;/div&gt;" style="text;html=1;strokeColor=none;fillColor=none;align=left;verticalAlign=middle;spacingLeft=4;spacingRight=4;whiteSpace=wrap;overflow=hidden;rotatable=0;points=[[0,0.5],[1,0.5]];portConstraint=eastwest;" vertex="1" parent="9T5XvWFMQbOCU71WLej6-60">
          <mxGeometry y="26" width="269" height="40" as="geometry" />
        </mxCell>
        <mxCell id="9T5XvWFMQbOCU71WLej6-62" value="" style="line;strokeWidth=1;fillColor=none;align=left;verticalAlign=middle;spacingTop=-1;spacingLeft=3;spacingRight=3;rotatable=0;labelPosition=right;points=[];portConstraint=eastwest;strokeColor=inherit;" vertex="1" parent="9T5XvWFMQbOCU71WLej6-60">
          <mxGeometry y="66" width="269" height="10" as="geometry" />
        </mxCell>
        <mxCell id="9T5XvWFMQbOCU71WLej6-63" value="+ EventNotifier(NotificationStrategy)&lt;div style=&quot;line-height: 140%;&quot;&gt;+ setStrategy(&lt;span style=&quot;background-color: initial;&quot;&gt;NotificationStrategy&lt;/span&gt;&lt;span style=&quot;background-color: initial;&quot;&gt;)&lt;/span&gt;&lt;/div&gt;&lt;div style=&quot;line-height: 140%;&quot;&gt;&lt;span style=&quot;background-color: initial;&quot;&gt;+ attach(Subscriber)&lt;/span&gt;&lt;/div&gt;&lt;div style=&quot;line-height: 140%;&quot;&gt;&lt;span style=&quot;background-color: initial;&quot;&gt;+ detach(Subscriber)&lt;/span&gt;&lt;/div&gt;&lt;div style=&quot;line-height: 140%;&quot;&gt;&lt;span style=&quot;background-color: initial;&quot;&gt;+ notify(string)&lt;/span&gt;&lt;/div&gt;" style="text;html=1;strokeColor=none;fillColor=none;align=left;verticalAlign=top;spacingLeft=4;spacingRight=4;whiteSpace=wrap;overflow=hidden;rotatable=0;points=[[0,0.5],[1,0.5]];portConstraint=eastwest;" vertex="1" parent="9T5XvWFMQbOCU71WLej6-60">
          <mxGeometry y="76" width="269" height="94" as="geometry" />
        </mxCell>
        <mxCell id="9T5XvWFMQbOCU71WLej6-64" value="User" style="swimlane;html=1;fontStyle=0;childLayout=stackLayout;horizontal=1;startSize=26;fillColor=none;horizontalStack=0;resizeParent=1;resizeLast=0;collapsible=1;marginBottom=0;swimlaneFillColor=#ffffff;rounded=0;shadow=0;comic=0;labelBackgroundColor=none;strokeWidth=1;fontFamily=Verdana;fontSize=10;align=center;" vertex="1" parent="1">
          <mxGeometry x="966" y="1834" width="269" height="130" as="geometry" />
        </mxCell>
        <mxCell id="9T5XvWFMQbOCU71WLej6-65" value="- subscribers: Subscriber[]&lt;div&gt;- strategy: NotificationStrategy&lt;/div&gt;" style="text;html=1;strokeColor=none;fillColor=none;align=left;verticalAlign=middle;spacingLeft=4;spacingRight=4;whiteSpace=wrap;overflow=hidden;rotatable=0;points=[[0,0.5],[1,0.5]];portConstraint=eastwest;" vertex="1" parent="9T5XvWFMQbOCU71WLej6-64">
          <mxGeometry y="26" width="269" height="40" as="geometry" />
        </mxCell>
        <mxCell id="9T5XvWFMQbOCU71WLej6-66" value="" style="line;strokeWidth=1;fillColor=none;align=left;verticalAlign=middle;spacingTop=-1;spacingLeft=3;spacingRight=3;rotatable=0;labelPosition=right;points=[];portConstraint=eastwest;strokeColor=inherit;" vertex="1" parent="9T5XvWFMQbOCU71WLej6-64">
          <mxGeometry y="66" width="269" height="10" as="geometry" />
        </mxCell>
        <mxCell id="9T5XvWFMQbOCU71WLej6-67" value="+ User(string)&lt;div style=&quot;line-height: 140%;&quot;&gt;+ update(&lt;span style=&quot;background-color: initial;&quot;&gt;string, string&lt;/span&gt;&lt;span style=&quot;background-color: initial;&quot;&gt;)&lt;/span&gt;&lt;/div&gt;" style="text;html=1;strokeColor=none;fillColor=none;align=left;verticalAlign=top;spacingLeft=4;spacingRight=4;whiteSpace=wrap;overflow=hidden;rotatable=0;points=[[0,0.5],[1,0.5]];portConstraint=eastwest;" vertex="1" parent="9T5XvWFMQbOCU71WLej6-64">
          <mxGeometry y="76" width="269" height="44" as="geometry" />
        </mxCell>
        <mxCell id="9T5XvWFMQbOCU71WLej6-68" value="" style="endArrow=block;dashed=1;endFill=0;endSize=12;html=1;rounded=0;exitX=0.468;exitY=0;exitDx=0;exitDy=0;entryX=0.5;entryY=1;entryDx=0;entryDy=0;exitPerimeter=0;" edge="1" parent="1" source="9T5XvWFMQbOCU71WLej6-64" target="9T5XvWFMQbOCU71WLej6-58">
          <mxGeometry width="160" relative="1" as="geometry">
            <mxPoint x="1186" y="1674" as="sourcePoint" />
            <mxPoint x="1346" y="1674" as="targetPoint" />
          </mxGeometry>
        </mxCell>
        <mxCell id="9T5XvWFMQbOCU71WLej6-70" value="" style="endArrow=diamondThin;endFill=0;endSize=24;html=1;rounded=0;entryX=0.003;entryY=0.3;entryDx=0;entryDy=0;entryPerimeter=0;" edge="1" parent="1" source="9T5XvWFMQbOCU71WLej6-58" target="9T5XvWFMQbOCU71WLej6-61">
          <mxGeometry width="160" relative="1" as="geometry">
            <mxPoint x="1186" y="1716" as="sourcePoint" />
            <mxPoint x="1392" y="1636" as="targetPoint" />
          </mxGeometry>
        </mxCell>
        <mxCell id="9T5XvWFMQbOCU71WLej6-71" value="&lt;p style=&quot;margin:0px;margin-top:4px;text-align:center;&quot;&gt;&lt;i&gt;&amp;lt;&amp;lt;Interface&amp;gt;&amp;gt;&lt;/i&gt;&lt;br&gt;&lt;b&gt;Iterator&lt;/b&gt;&lt;/p&gt;&lt;hr size=&quot;1&quot;&gt;&lt;p style=&quot;margin:0px;margin-left:4px;&quot;&gt;&lt;br&gt;&lt;/p&gt;&lt;hr size=&quot;1&quot;&gt;&lt;p style=&quot;margin: 0px 0px 0px 4px; line-height: 140%;&quot;&gt;+ next(): T&lt;/p&gt;&lt;p style=&quot;margin: 0px 0px 0px 4px; line-height: 140%;&quot;&gt;+ hasNext(): boolean&lt;/p&gt;" style="verticalAlign=top;align=left;overflow=fill;fontSize=12;fontFamily=Helvetica;html=1;rounded=0;shadow=0;comic=0;labelBackgroundColor=none;strokeWidth=1" vertex="1" parent="1">
          <mxGeometry x="589" y="1666" width="190" height="112" as="geometry" />
        </mxCell>
        <mxCell id="9T5XvWFMQbOCU71WLej6-72" value="ArrayIterator" style="swimlane;html=1;fontStyle=0;childLayout=stackLayout;horizontal=1;startSize=26;fillColor=none;horizontalStack=0;resizeParent=1;resizeLast=0;collapsible=1;marginBottom=0;swimlaneFillColor=#ffffff;rounded=0;shadow=0;comic=0;labelBackgroundColor=none;strokeWidth=1;fontFamily=Verdana;fontSize=10;align=center;" vertex="1" parent="1">
          <mxGeometry x="546" y="1836" width="269" height="130" as="geometry" />
        </mxCell>
        <mxCell id="9T5XvWFMQbOCU71WLej6-73" value="- index: number" style="text;html=1;strokeColor=none;fillColor=none;align=left;verticalAlign=middle;spacingLeft=4;spacingRight=4;whiteSpace=wrap;overflow=hidden;rotatable=0;points=[[0,0.5],[1,0.5]];portConstraint=eastwest;" vertex="1" parent="9T5XvWFMQbOCU71WLej6-72">
          <mxGeometry y="26" width="269" height="34" as="geometry" />
        </mxCell>
        <mxCell id="9T5XvWFMQbOCU71WLej6-74" value="" style="line;strokeWidth=1;fillColor=none;align=left;verticalAlign=middle;spacingTop=-1;spacingLeft=3;spacingRight=3;rotatable=0;labelPosition=right;points=[];portConstraint=eastwest;strokeColor=inherit;" vertex="1" parent="9T5XvWFMQbOCU71WLej6-72">
          <mxGeometry y="60" width="269" height="10" as="geometry" />
        </mxCell>
        <mxCell id="9T5XvWFMQbOCU71WLej6-75" value="&lt;p style=&quot;text-wrap: nowrap; margin: 0px 0px 0px 4px; line-height: 16.8px;&quot;&gt;+ ArrayIterator(T[])&lt;/p&gt;&lt;p style=&quot;text-wrap: nowrap; margin: 0px 0px 0px 4px; line-height: 16.8px;&quot;&gt;+ next(): T&lt;/p&gt;&lt;p style=&quot;text-wrap: nowrap; margin: 0px 0px 0px 4px; line-height: 16.8px;&quot;&gt;+ hasNext(): boolean&lt;/p&gt;" style="text;html=1;strokeColor=none;fillColor=none;align=left;verticalAlign=top;spacingLeft=4;spacingRight=4;whiteSpace=wrap;overflow=hidden;rotatable=0;points=[[0,0.5],[1,0.5]];portConstraint=eastwest;" vertex="1" parent="9T5XvWFMQbOCU71WLej6-72">
          <mxGeometry y="70" width="269" height="60" as="geometry" />
        </mxCell>
        <mxCell id="9T5XvWFMQbOCU71WLej6-76" value="" style="endArrow=block;dashed=1;endFill=0;endSize=12;html=1;rounded=0;exitX=0.5;exitY=0;exitDx=0;exitDy=0;entryX=0.473;entryY=0.99;entryDx=0;entryDy=0;entryPerimeter=0;" edge="1" parent="1" source="9T5XvWFMQbOCU71WLej6-72" target="9T5XvWFMQbOCU71WLej6-71">
          <mxGeometry width="160" relative="1" as="geometry">
            <mxPoint x="681" y="1818" as="sourcePoint" />
            <mxPoint x="680" y="1778" as="targetPoint" />
          </mxGeometry>
        </mxCell>
        <mxCell id="9T5XvWFMQbOCU71WLej6-78" value="" style="endArrow=open;endFill=1;endSize=12;html=1;rounded=0;exitX=-0.004;exitY=0.136;exitDx=0;exitDy=0;exitPerimeter=0;entryX=1.002;entryY=0.145;entryDx=0;entryDy=0;entryPerimeter=0;" edge="1" parent="1" source="9T5XvWFMQbOCU71WLej6-64" target="9T5XvWFMQbOCU71WLej6-72">
          <mxGeometry width="160" relative="1" as="geometry">
            <mxPoint x="906" y="1916" as="sourcePoint" />
            <mxPoint x="816" y="1916" as="targetPoint" />
          </mxGeometry>
        </mxCell>
        <mxCell id="9T5XvWFMQbOCU71WLej6-79" value="&lt;p style=&quot;margin:0px;margin-top:4px;text-align:center;&quot;&gt;&lt;i&gt;&amp;lt;&amp;lt;Interface&amp;gt;&amp;gt;&lt;/i&gt;&lt;br&gt;&lt;b&gt;NotificationStrategy&lt;/b&gt;&lt;/p&gt;&lt;hr size=&quot;1&quot;&gt;&lt;p style=&quot;margin:0px;margin-left:4px;&quot;&gt;&lt;br&gt;&lt;/p&gt;&lt;hr size=&quot;1&quot;&gt;&lt;p style=&quot;margin: 0px 0px 0px 4px; line-height: 140%;&quot;&gt;+ send(string, Subscriber)&lt;/p&gt;" style="verticalAlign=top;align=left;overflow=fill;fontSize=12;fontFamily=Helvetica;html=1;rounded=0;shadow=0;comic=0;labelBackgroundColor=none;strokeWidth=1" vertex="1" parent="1">
          <mxGeometry x="1741" y="1698" width="190" height="100" as="geometry" />
        </mxCell>
        <mxCell id="9T5XvWFMQbOCU71WLej6-80" value="EmailNotification" style="swimlane;html=1;fontStyle=0;childLayout=stackLayout;horizontal=1;startSize=26;fillColor=none;horizontalStack=0;resizeParent=1;resizeLast=0;collapsible=1;marginBottom=0;swimlaneFillColor=#ffffff;rounded=0;shadow=0;comic=0;labelBackgroundColor=none;strokeWidth=1;fontFamily=Verdana;fontSize=10;align=center;" vertex="1" parent="1">
          <mxGeometry x="1868" y="1861" width="190" height="90" as="geometry" />
        </mxCell>
        <mxCell id="9T5XvWFMQbOCU71WLej6-81" value="&amp;nbsp;" style="text;html=1;strokeColor=none;fillColor=none;align=left;verticalAlign=middle;spacingLeft=4;spacingRight=4;whiteSpace=wrap;overflow=hidden;rotatable=0;points=[[0,0.5],[1,0.5]];portConstraint=eastwest;" vertex="1" parent="9T5XvWFMQbOCU71WLej6-80">
          <mxGeometry y="26" width="190" height="14" as="geometry" />
        </mxCell>
        <mxCell id="9T5XvWFMQbOCU71WLej6-82" value="" style="line;strokeWidth=1;fillColor=none;align=left;verticalAlign=middle;spacingTop=-1;spacingLeft=3;spacingRight=3;rotatable=0;labelPosition=right;points=[];portConstraint=eastwest;strokeColor=inherit;" vertex="1" parent="9T5XvWFMQbOCU71WLej6-80">
          <mxGeometry y="40" width="190" height="10" as="geometry" />
        </mxCell>
        <mxCell id="9T5XvWFMQbOCU71WLej6-83" value="&lt;p style=&quot;text-wrap: nowrap; margin: 0px 0px 0px 4px; line-height: 16.8px;&quot;&gt;+ send(string, Subscriber)&lt;/p&gt;" style="text;html=1;strokeColor=none;fillColor=none;align=left;verticalAlign=top;spacingLeft=4;spacingRight=4;whiteSpace=wrap;overflow=hidden;rotatable=0;points=[[0,0.5],[1,0.5]];portConstraint=eastwest;" vertex="1" parent="9T5XvWFMQbOCU71WLej6-80">
          <mxGeometry y="50" width="190" height="40" as="geometry" />
        </mxCell>
        <mxCell id="9T5XvWFMQbOCU71WLej6-84" value="SMSNotification" style="swimlane;html=1;fontStyle=0;childLayout=stackLayout;horizontal=1;startSize=26;fillColor=none;horizontalStack=0;resizeParent=1;resizeLast=0;collapsible=1;marginBottom=0;swimlaneFillColor=#ffffff;rounded=0;shadow=0;comic=0;labelBackgroundColor=none;strokeWidth=1;fontFamily=Verdana;fontSize=10;align=center;" vertex="1" parent="1">
          <mxGeometry x="1607" y="1861" width="200" height="90" as="geometry" />
        </mxCell>
        <mxCell id="9T5XvWFMQbOCU71WLej6-85" value="&amp;nbsp;" style="text;html=1;strokeColor=none;fillColor=none;align=left;verticalAlign=middle;spacingLeft=4;spacingRight=4;whiteSpace=wrap;overflow=hidden;rotatable=0;points=[[0,0.5],[1,0.5]];portConstraint=eastwest;" vertex="1" parent="9T5XvWFMQbOCU71WLej6-84">
          <mxGeometry y="26" width="200" height="14" as="geometry" />
        </mxCell>
        <mxCell id="9T5XvWFMQbOCU71WLej6-86" value="" style="line;strokeWidth=1;fillColor=none;align=left;verticalAlign=middle;spacingTop=-1;spacingLeft=3;spacingRight=3;rotatable=0;labelPosition=right;points=[];portConstraint=eastwest;strokeColor=inherit;" vertex="1" parent="9T5XvWFMQbOCU71WLej6-84">
          <mxGeometry y="40" width="200" height="10" as="geometry" />
        </mxCell>
        <mxCell id="9T5XvWFMQbOCU71WLej6-87" value="&lt;p style=&quot;text-wrap: nowrap; margin: 0px 0px 0px 4px; line-height: 16.8px;&quot;&gt;+ send(string, Subscriber)&lt;/p&gt;" style="text;html=1;strokeColor=none;fillColor=none;align=left;verticalAlign=top;spacingLeft=4;spacingRight=4;whiteSpace=wrap;overflow=hidden;rotatable=0;points=[[0,0.5],[1,0.5]];portConstraint=eastwest;" vertex="1" parent="9T5XvWFMQbOCU71WLej6-84">
          <mxGeometry y="50" width="200" height="40" as="geometry" />
        </mxCell>
        <mxCell id="9T5XvWFMQbOCU71WLej6-88" value="" style="endArrow=block;dashed=1;endFill=0;endSize=12;html=1;rounded=0;exitX=0.5;exitY=0;exitDx=0;exitDy=0;entryX=0.5;entryY=1;entryDx=0;entryDy=0;" edge="1" parent="1" source="9T5XvWFMQbOCU71WLej6-84" target="9T5XvWFMQbOCU71WLej6-79">
          <mxGeometry width="160" relative="1" as="geometry">
            <mxPoint x="1707" y="1855" as="sourcePoint" />
            <mxPoint x="1838" y="1801" as="targetPoint" />
            <Array as="points">
              <mxPoint x="1707" y="1836" />
              <mxPoint x="1838" y="1836" />
            </Array>
          </mxGeometry>
        </mxCell>
        <mxCell id="9T5XvWFMQbOCU71WLej6-89" value="" style="endArrow=none;dashed=1;html=1;rounded=0;entryX=0.5;entryY=0;entryDx=0;entryDy=0;" edge="1" parent="1" target="9T5XvWFMQbOCU71WLej6-80">
          <mxGeometry width="50" height="50" relative="1" as="geometry">
            <mxPoint x="1833" y="1836" as="sourcePoint" />
            <mxPoint x="1963" y="1856" as="targetPoint" />
            <Array as="points">
              <mxPoint x="1963" y="1836" />
            </Array>
          </mxGeometry>
        </mxCell>
        <mxCell id="9T5XvWFMQbOCU71WLej6-90" value="" style="endArrow=diamondThin;endFill=0;endSize=24;html=1;rounded=0;entryX=1;entryY=0.5;entryDx=0;entryDy=0;exitX=0;exitY=0.25;exitDx=0;exitDy=0;" edge="1" parent="1" source="9T5XvWFMQbOCU71WLej6-79" target="9T5XvWFMQbOCU71WLej6-61">
          <mxGeometry width="160" relative="1" as="geometry">
            <mxPoint x="1622" y="1656" as="sourcePoint" />
            <mxPoint x="1782" y="1656" as="targetPoint" />
          </mxGeometry>
        </mxCell>
        <mxCell id="9T5XvWFMQbOCU71WLej6-91" value="Task" style="swimlane;html=1;fontStyle=0;childLayout=stackLayout;horizontal=1;startSize=26;fillColor=none;horizontalStack=0;resizeParent=1;resizeLast=0;collapsible=1;marginBottom=0;swimlaneFillColor=#ffffff;rounded=0;shadow=0;comic=0;labelBackgroundColor=none;strokeWidth=1;fontFamily=Verdana;fontSize=10;align=center;" vertex="1" parent="1">
          <mxGeometry x="965" y="2066" width="269" height="263" as="geometry" />
        </mxCell>
        <mxCell id="9T5XvWFMQbOCU71WLej6-92" value="- state: State&lt;div&gt;- assignee: User | null&lt;/div&gt;" style="text;html=1;strokeColor=none;fillColor=none;align=left;verticalAlign=middle;spacingLeft=4;spacingRight=4;whiteSpace=wrap;overflow=hidden;rotatable=0;points=[[0,0.5],[1,0.5]];portConstraint=eastwest;" vertex="1" parent="9T5XvWFMQbOCU71WLej6-91">
          <mxGeometry y="26" width="269" height="40" as="geometry" />
        </mxCell>
        <mxCell id="9T5XvWFMQbOCU71WLej6-93" value="" style="line;strokeWidth=1;fillColor=none;align=left;verticalAlign=middle;spacingTop=-1;spacingLeft=3;spacingRight=3;rotatable=0;labelPosition=right;points=[];portConstraint=eastwest;strokeColor=inherit;" vertex="1" parent="9T5XvWFMQbOCU71WLej6-91">
          <mxGeometry y="66" width="269" height="10" as="geometry" />
        </mxCell>
        <mxCell id="9T5XvWFMQbOCU71WLej6-94" value="+ Task(string)&lt;div style=&quot;line-height: 140%;&quot;&gt;+ getName(&lt;span style=&quot;background-color: initial;&quot;&gt;): string&lt;/span&gt;&lt;/div&gt;&lt;div style=&quot;line-height: 140%;&quot;&gt;&lt;span style=&quot;background-color: initial;&quot;&gt;+ rename(string)&lt;/span&gt;&lt;/div&gt;&lt;div style=&quot;line-height: 140%;&quot;&gt;&lt;span style=&quot;background-color: initial;&quot;&gt;+ setAssignee(User)&lt;/span&gt;&lt;/div&gt;&lt;div style=&quot;line-height: 140%;&quot;&gt;&lt;span style=&quot;background-color: initial;&quot;&gt;+ unsetAssignee()&lt;/span&gt;&lt;/div&gt;&lt;div style=&quot;line-height: 140%;&quot;&gt;&lt;span style=&quot;background-color: initial;&quot;&gt;+ setState(State)&lt;/span&gt;&lt;/div&gt;&lt;div style=&quot;line-height: 140%;&quot;&gt;+ addAssignee(User)&lt;/div&gt;&lt;div style=&quot;line-height: 140%;&quot;&gt;+ removeAssignee(User)&lt;/div&gt;&lt;div style=&quot;line-height: 140%;&quot;&gt;+ changeTitle(string)&lt;/div&gt;&lt;div style=&quot;line-height: 140%;&quot;&gt;+ moveToNextState()&lt;/div&gt;" style="text;html=1;strokeColor=none;fillColor=none;align=left;verticalAlign=top;spacingLeft=4;spacingRight=4;whiteSpace=wrap;overflow=hidden;rotatable=0;points=[[0,0.5],[1,0.5]];portConstraint=eastwest;" vertex="1" parent="9T5XvWFMQbOCU71WLej6-91">
          <mxGeometry y="76" width="269" height="174" as="geometry" />
        </mxCell>
        <mxCell id="9T5XvWFMQbOCU71WLej6-95" value="&lt;p style=&quot;margin:0px;margin-top:4px;text-align:center;&quot;&gt;&lt;i&gt;&amp;lt;&amp;lt;Interface&amp;gt;&amp;gt;&lt;/i&gt;&lt;br&gt;&lt;b&gt;State&lt;/b&gt;&lt;/p&gt;&lt;hr size=&quot;1&quot;&gt;&lt;p style=&quot;margin:0px;margin-left:4px;&quot;&gt;&lt;br&gt;&lt;/p&gt;&lt;hr size=&quot;1&quot;&gt;&lt;p style=&quot;margin: 0px 0px 0px 4px; line-height: 140%;&quot;&gt;&lt;span style=&quot;text-wrap: wrap; background-color: initial;&quot;&gt;+ addAssignee(User)&lt;/span&gt;&lt;br&gt;&lt;/p&gt;&lt;div style=&quot;text-wrap: wrap; line-height: 16.8px;&quot;&gt;&amp;nbsp;+ removeAssignee(User)&lt;/div&gt;&lt;div style=&quot;text-wrap: wrap; line-height: 16.8px;&quot;&gt;&amp;nbsp;+ changeTitle(string)&lt;/div&gt;&lt;div style=&quot;text-wrap: wrap; line-height: 16.8px;&quot;&gt;&amp;nbsp;+ moveToNextState()&lt;/div&gt;" style="verticalAlign=top;align=left;overflow=fill;fontSize=12;fontFamily=Helvetica;html=1;rounded=0;shadow=0;comic=0;labelBackgroundColor=none;strokeWidth=1" vertex="1" parent="1">
          <mxGeometry x="1492" y="2085" width="190" height="150" as="geometry" />
        </mxCell>
        <mxCell id="9T5XvWFMQbOCU71WLej6-96" value="ActiveState" style="swimlane;html=1;fontStyle=0;childLayout=stackLayout;horizontal=1;startSize=26;fillColor=none;horizontalStack=0;resizeParent=1;resizeLast=0;collapsible=1;marginBottom=0;swimlaneFillColor=#ffffff;rounded=0;shadow=0;comic=0;labelBackgroundColor=none;strokeWidth=1;fontFamily=Verdana;fontSize=10;align=center;" vertex="1" parent="1">
          <mxGeometry x="1497" y="2308" width="180" height="170" as="geometry" />
        </mxCell>
        <mxCell id="9T5XvWFMQbOCU71WLej6-97" value="&amp;nbsp;- task: Task" style="text;html=1;strokeColor=none;fillColor=none;align=left;verticalAlign=middle;spacingLeft=4;spacingRight=4;whiteSpace=wrap;overflow=hidden;rotatable=0;points=[[0,0.5],[1,0.5]];portConstraint=eastwest;" vertex="1" parent="9T5XvWFMQbOCU71WLej6-96">
          <mxGeometry y="26" width="180" height="34" as="geometry" />
        </mxCell>
        <mxCell id="9T5XvWFMQbOCU71WLej6-98" value="" style="line;strokeWidth=1;fillColor=none;align=left;verticalAlign=middle;spacingTop=-1;spacingLeft=3;spacingRight=3;rotatable=0;labelPosition=right;points=[];portConstraint=eastwest;strokeColor=inherit;" vertex="1" parent="9T5XvWFMQbOCU71WLej6-96">
          <mxGeometry y="60" width="180" height="10" as="geometry" />
        </mxCell>
        <mxCell id="9T5XvWFMQbOCU71WLej6-99" value="&lt;p style=&quot;text-wrap: nowrap; margin: 0px 0px 0px 4px; line-height: 16.8px;&quot;&gt;&lt;span style=&quot;text-wrap: wrap; background-color: initial;&quot;&gt;+ addAssignee(User)&lt;/span&gt;&lt;br&gt;&lt;/p&gt;&lt;div style=&quot;line-height: 16.8px;&quot;&gt;&amp;nbsp;+ removeAssignee(User)&lt;/div&gt;&lt;div style=&quot;line-height: 16.8px;&quot;&gt;&amp;nbsp;+ changeTitle(string)&lt;/div&gt;&lt;div style=&quot;line-height: 16.8px;&quot;&gt;&amp;nbsp;+ moveToNextState()&lt;/div&gt;" style="text;html=1;strokeColor=none;fillColor=none;align=left;verticalAlign=top;spacingLeft=4;spacingRight=4;whiteSpace=wrap;overflow=hidden;rotatable=0;points=[[0,0.5],[1,0.5]];portConstraint=eastwest;" vertex="1" parent="9T5XvWFMQbOCU71WLej6-96">
          <mxGeometry y="70" width="180" height="94" as="geometry" />
        </mxCell>
        <mxCell id="9T5XvWFMQbOCU71WLej6-100" value="DraftState" style="swimlane;html=1;fontStyle=0;childLayout=stackLayout;horizontal=1;startSize=26;fillColor=none;horizontalStack=0;resizeParent=1;resizeLast=0;collapsible=1;marginBottom=0;swimlaneFillColor=#ffffff;rounded=0;shadow=0;comic=0;labelBackgroundColor=none;strokeWidth=1;fontFamily=Verdana;fontSize=10;align=center;" vertex="1" parent="1">
          <mxGeometry x="1286" y="2308" width="180" height="170" as="geometry" />
        </mxCell>
        <mxCell id="9T5XvWFMQbOCU71WLej6-101" value="&amp;nbsp;- task: Task" style="text;html=1;strokeColor=none;fillColor=none;align=left;verticalAlign=middle;spacingLeft=4;spacingRight=4;whiteSpace=wrap;overflow=hidden;rotatable=0;points=[[0,0.5],[1,0.5]];portConstraint=eastwest;" vertex="1" parent="9T5XvWFMQbOCU71WLej6-100">
          <mxGeometry y="26" width="180" height="34" as="geometry" />
        </mxCell>
        <mxCell id="9T5XvWFMQbOCU71WLej6-102" value="" style="line;strokeWidth=1;fillColor=none;align=left;verticalAlign=middle;spacingTop=-1;spacingLeft=3;spacingRight=3;rotatable=0;labelPosition=right;points=[];portConstraint=eastwest;strokeColor=inherit;" vertex="1" parent="9T5XvWFMQbOCU71WLej6-100">
          <mxGeometry y="60" width="180" height="10" as="geometry" />
        </mxCell>
        <mxCell id="9T5XvWFMQbOCU71WLej6-103" value="&lt;p style=&quot;text-wrap: nowrap; margin: 0px 0px 0px 4px; line-height: 16.8px;&quot;&gt;&lt;span style=&quot;text-wrap: wrap; background-color: initial;&quot;&gt;+ addAssignee(User)&lt;/span&gt;&lt;br&gt;&lt;/p&gt;&lt;div style=&quot;line-height: 16.8px;&quot;&gt;&amp;nbsp;+ removeAssignee(User)&lt;/div&gt;&lt;div style=&quot;line-height: 16.8px;&quot;&gt;&amp;nbsp;+ changeTitle(string)&lt;/div&gt;&lt;div style=&quot;line-height: 16.8px;&quot;&gt;&amp;nbsp;+ moveToNextState()&lt;/div&gt;" style="text;html=1;strokeColor=none;fillColor=none;align=left;verticalAlign=top;spacingLeft=4;spacingRight=4;whiteSpace=wrap;overflow=hidden;rotatable=0;points=[[0,0.5],[1,0.5]];portConstraint=eastwest;" vertex="1" parent="9T5XvWFMQbOCU71WLej6-100">
          <mxGeometry y="70" width="180" height="94" as="geometry" />
        </mxCell>
        <mxCell id="9T5XvWFMQbOCU71WLej6-104" value="CompletedState" style="swimlane;html=1;fontStyle=0;childLayout=stackLayout;horizontal=1;startSize=26;fillColor=none;horizontalStack=0;resizeParent=1;resizeLast=0;collapsible=1;marginBottom=0;swimlaneFillColor=#ffffff;rounded=0;shadow=0;comic=0;labelBackgroundColor=none;strokeWidth=1;fontFamily=Verdana;fontSize=10;align=center;" vertex="1" parent="1">
          <mxGeometry x="1712" y="2307" width="180" height="170" as="geometry" />
        </mxCell>
        <mxCell id="9T5XvWFMQbOCU71WLej6-105" value="&amp;nbsp;- task: Task" style="text;html=1;strokeColor=none;fillColor=none;align=left;verticalAlign=middle;spacingLeft=4;spacingRight=4;whiteSpace=wrap;overflow=hidden;rotatable=0;points=[[0,0.5],[1,0.5]];portConstraint=eastwest;" vertex="1" parent="9T5XvWFMQbOCU71WLej6-104">
          <mxGeometry y="26" width="180" height="34" as="geometry" />
        </mxCell>
        <mxCell id="9T5XvWFMQbOCU71WLej6-106" value="" style="line;strokeWidth=1;fillColor=none;align=left;verticalAlign=middle;spacingTop=-1;spacingLeft=3;spacingRight=3;rotatable=0;labelPosition=right;points=[];portConstraint=eastwest;strokeColor=inherit;" vertex="1" parent="9T5XvWFMQbOCU71WLej6-104">
          <mxGeometry y="60" width="180" height="10" as="geometry" />
        </mxCell>
        <mxCell id="9T5XvWFMQbOCU71WLej6-107" value="&lt;p style=&quot;text-wrap: nowrap; margin: 0px 0px 0px 4px; line-height: 16.8px;&quot;&gt;&lt;span style=&quot;text-wrap: wrap; background-color: initial;&quot;&gt;+ addAssignee(User)&lt;/span&gt;&lt;br&gt;&lt;/p&gt;&lt;div style=&quot;line-height: 16.8px;&quot;&gt;&amp;nbsp;+ removeAssignee(User)&lt;/div&gt;&lt;div style=&quot;line-height: 16.8px;&quot;&gt;&amp;nbsp;+ changeTitle(string)&lt;/div&gt;&lt;div style=&quot;line-height: 16.8px;&quot;&gt;&amp;nbsp;+ moveToNextState()&lt;/div&gt;" style="text;html=1;strokeColor=none;fillColor=none;align=left;verticalAlign=top;spacingLeft=4;spacingRight=4;whiteSpace=wrap;overflow=hidden;rotatable=0;points=[[0,0.5],[1,0.5]];portConstraint=eastwest;" vertex="1" parent="9T5XvWFMQbOCU71WLej6-104">
          <mxGeometry y="70" width="180" height="94" as="geometry" />
        </mxCell>
        <mxCell id="9T5XvWFMQbOCU71WLej6-108" value="" style="endArrow=block;dashed=1;endFill=0;endSize=12;html=1;rounded=0;exitX=0.5;exitY=0;exitDx=0;exitDy=0;entryX=0.5;entryY=1;entryDx=0;entryDy=0;" edge="1" parent="1" source="9T5XvWFMQbOCU71WLej6-100" target="9T5XvWFMQbOCU71WLej6-95">
          <mxGeometry width="160" relative="1" as="geometry">
            <mxPoint x="1447" y="2308" as="sourcePoint" />
            <mxPoint x="1576" y="2245" as="targetPoint" />
            <Array as="points">
              <mxPoint x="1377" y="2283" />
              <mxPoint x="1587" y="2283" />
            </Array>
          </mxGeometry>
        </mxCell>
        <mxCell id="9T5XvWFMQbOCU71WLej6-109" value="" style="endArrow=none;dashed=1;html=1;rounded=0;entryX=0.5;entryY=0;entryDx=0;entryDy=0;" edge="1" parent="1" target="9T5XvWFMQbOCU71WLej6-104">
          <mxGeometry width="50" height="50" relative="1" as="geometry">
            <mxPoint x="1573" y="2283" as="sourcePoint" />
            <mxPoint x="1703" y="2308" as="targetPoint" />
            <Array as="points">
              <mxPoint x="1802" y="2283" />
            </Array>
          </mxGeometry>
        </mxCell>
        <mxCell id="9T5XvWFMQbOCU71WLej6-110" value="" style="endArrow=none;dashed=1;html=1;rounded=0;entryX=0.5;entryY=0;entryDx=0;entryDy=0;" edge="1" parent="1" target="9T5XvWFMQbOCU71WLej6-96">
          <mxGeometry width="50" height="50" relative="1" as="geometry">
            <mxPoint x="1587" y="2288" as="sourcePoint" />
            <mxPoint x="1827" y="2318" as="targetPoint" />
          </mxGeometry>
        </mxCell>
        <mxCell id="9T5XvWFMQbOCU71WLej6-111" value="" style="endArrow=diamondThin;endFill=0;endSize=24;html=1;rounded=0;entryX=1;entryY=0.5;entryDx=0;entryDy=0;exitX=0.005;exitY=0.175;exitDx=0;exitDy=0;exitPerimeter=0;" edge="1" parent="1" source="9T5XvWFMQbOCU71WLej6-95" target="9T5XvWFMQbOCU71WLej6-92">
          <mxGeometry width="160" relative="1" as="geometry">
            <mxPoint x="1296" y="2128" as="sourcePoint" />
            <mxPoint x="1456" y="2128" as="targetPoint" />
          </mxGeometry>
        </mxCell>
        <mxCell id="9T5XvWFMQbOCU71WLej6-112" value="" style="endArrow=open;endFill=1;endSize=12;html=1;rounded=0;entryX=0.5;entryY=1;entryDx=0;entryDy=0;" edge="1" parent="1" source="9T5XvWFMQbOCU71WLej6-100" target="9T5XvWFMQbOCU71WLej6-91">
          <mxGeometry width="160" relative="1" as="geometry">
            <mxPoint x="1247" y="2218" as="sourcePoint" />
            <mxPoint x="1117" y="2388" as="targetPoint" />
            <Array as="points">
              <mxPoint x="1100" y="2393" />
            </Array>
          </mxGeometry>
        </mxCell>
        <mxCell id="9T5XvWFMQbOCU71WLej6-115" value="" style="endArrow=open;endFill=1;endSize=12;html=1;rounded=0;exitX=0.5;exitY=1;exitDx=0;exitDy=0;entryX=0.25;entryY=1;entryDx=0;entryDy=0;" edge="1" parent="1" source="9T5XvWFMQbOCU71WLej6-100" target="9T5XvWFMQbOCU71WLej6-96">
          <mxGeometry width="160" relative="1" as="geometry">
            <mxPoint x="1563" y="2562" as="sourcePoint" />
            <mxPoint x="1597" y="2478" as="targetPoint" />
            <Array as="points">
              <mxPoint x="1376" y="2528" />
              <mxPoint x="1542" y="2528" />
            </Array>
          </mxGeometry>
        </mxCell>
        <mxCell id="9T5XvWFMQbOCU71WLej6-116" value="" style="endArrow=open;endFill=1;endSize=12;html=1;rounded=0;entryX=0.5;entryY=1;entryDx=0;entryDy=0;" edge="1" parent="1" target="9T5XvWFMQbOCU71WLej6-104">
          <mxGeometry width="160" relative="1" as="geometry">
            <mxPoint x="1617" y="2478" as="sourcePoint" />
            <mxPoint x="1783" y="2488" as="targetPoint" />
            <Array as="points">
              <mxPoint x="1617" y="2528" />
              <mxPoint x="1802" y="2528" />
            </Array>
          </mxGeometry>
        </mxCell>
        <mxCell id="9T5XvWFMQbOCU71WLej6-117" value="" style="endArrow=diamondThin;endFill=0;endSize=24;html=1;rounded=0;exitX=0.5;exitY=1;exitDx=0;exitDy=0;entryX=0.5;entryY=0;entryDx=0;entryDy=0;" edge="1" parent="1" source="9T5XvWFMQbOCU71WLej6-64" target="9T5XvWFMQbOCU71WLej6-91">
          <mxGeometry width="160" relative="1" as="geometry">
            <mxPoint x="1086" y="2066" as="sourcePoint" />
            <mxPoint x="1246" y="2066" as="targetPoint" />
          </mxGeometry>
        </mxCell>
        <mxCell id="9T5XvWFMQbOCU71WLej6-118" value="Iterator" style="text;html=1;align=center;verticalAlign=middle;resizable=0;points=[];autosize=1;strokeColor=none;fillColor=none;fontFamily=Comic Sans MS;fontStyle=1;fontSize=17;fontColor=#4F4F4F;" vertex="1" parent="1">
          <mxGeometry x="426" y="1716" width="90" height="30" as="geometry" />
        </mxCell>
        <mxCell id="9T5XvWFMQbOCU71WLej6-119" value="Observer" style="text;html=1;align=center;verticalAlign=middle;resizable=0;points=[];autosize=1;strokeColor=none;fillColor=none;fontFamily=Comic Sans MS;fontStyle=1;fontSize=17;fontColor=#4F4F4F;" vertex="1" parent="1">
          <mxGeometry x="1216" y="1626" width="100" height="30" as="geometry" />
        </mxCell>
        <mxCell id="9T5XvWFMQbOCU71WLej6-120" value="Strategy" style="text;html=1;align=center;verticalAlign=middle;resizable=0;points=[];autosize=1;strokeColor=none;fillColor=none;fontFamily=Comic Sans MS;fontStyle=1;fontSize=17;fontColor=#4F4F4F;" vertex="1" parent="1">
          <mxGeometry x="1618" y="1778" width="100" height="30" as="geometry" />
        </mxCell>
        <mxCell id="9T5XvWFMQbOCU71WLej6-121" value="State" style="text;html=1;align=center;verticalAlign=middle;resizable=0;points=[];autosize=1;strokeColor=none;fillColor=none;fontFamily=Comic Sans MS;fontStyle=1;fontSize=17;fontColor=#4F4F4F;" vertex="1" parent="1">
          <mxGeometry x="1323" y="2176" width="70" height="30" as="geometry" />
        </mxCell>
        <mxCell id="9T5XvWFMQbOCU71WLej6-122" value="" style="rounded=1;whiteSpace=wrap;html=1;fillStyle=dashed;dashed=1;strokeColor=#FFC526;strokeWidth=2;fillColor=none;" vertex="1" parent="1">
          <mxGeometry x="396" y="1606" width="530" height="400" as="geometry" />
        </mxCell>
        <mxCell id="9T5XvWFMQbOCU71WLej6-123" value="" style="rounded=1;whiteSpace=wrap;html=1;fillStyle=dashed;dashed=1;strokeColor=#FFC526;strokeWidth=2;fillColor=none;" vertex="1" parent="1">
          <mxGeometry x="952" y="1586" width="651" height="442" as="geometry" />
        </mxCell>
        <mxCell id="9T5XvWFMQbOCU71WLej6-124" value="" style="rounded=1;whiteSpace=wrap;html=1;fillStyle=dashed;dashed=1;strokeColor=#FFC526;strokeWidth=2;fillColor=none;" vertex="1" parent="1">
          <mxGeometry x="1304" y="1645" width="801" height="340" as="geometry" />
        </mxCell>
        <mxCell id="9T5XvWFMQbOCU71WLej6-125" value="" style="rounded=1;whiteSpace=wrap;html=1;fillStyle=dashed;dashed=1;strokeColor=#FFC526;strokeWidth=2;fillColor=none;" vertex="1" parent="1">
          <mxGeometry x="939" y="2028" width="991" height="528" as="geometry" />
        </mxCell>
      </root>
    </mxGraphModel>
  </diagram>
</mxfile>
